{"title":"isabail kaif mms scandal","uid":8800394,"size":37209158,"categoryP":"porn","categoryS":"other","magnet":"?xt=urn:btih:d11b6acf45b9dbf20b8bd4928a8e71a1ca2d5cdd&amp;dn=isabail+kaif+mms+scandal&amp;tr=udp%3A%2F%2Ftracker.openbittorrent.com%3A80&amp;tr=udp%3A%2F%2Fopen.demonii.com%3A1337&amp;tr=udp%3A%2F%2Ftracker.coppersurfer.tk%3A6969&amp;tr=udp%3A%2F%2Fexodus.desync.com%3A6969","seeders":0,"leechers":1,"uploader":"raju0341","files":1,"time":1376185064,"description":" &lt;a href=&quot;http://www.flickimg.com/images/2013/06/25/3NF0Sa.jpg&quot; rel=&quot;nofollow&quot; target=&quot;_NEW&quot;&gt;http://www.flickimg.com/images/2013/06/25/3NF0Sa.jpg&lt;/a&gt;\n &lt;a href=&quot;\nhttp://www.flickimg.com/images/2013/06/25/11.jpg&quot; rel=&quot;nofollow&quot; target=&quot;_NEW&quot;&gt;\nhttp://www.flickimg.com/images/2013/06/25/11.jpg&lt;/a&gt;\n &lt;a href=&quot;\nhttp://www.flickimg.com/images/2013/06/25/22.jpg&quot; rel=&quot;nofollow&quot; target=&quot;_NEW&quot;&gt;\nhttp://www.flickimg.com/images/2013/06/25/22.jpg&lt;/a&gt;\n\n\n\n &lt;a href=&quot;\nhttp://s10.postimg.org/42bjzbevd/Isabel_Kaif_sibling_of_Katrina_Kaif_sex_By_Share.jpg&quot; rel=&quot;nofollow&quot; target=&quot;_NEW&quot;&gt;\nhttp://s10.postimg.org/42bjzbevd/Isabel_Kaif_sibling_of_Katrina_Kaif_sex_By_Share.jpg&lt;/a&gt;\n\n\nplz see the screenshots.\n\n\ndetails==&gt;&gt;\n\n    Format : Flash Video\n    File size : 35.5 MiB\n    Duration : 10mn 53s\n    Overall bit rate : 455 Kbps\n    Tagged date : UTC 2011-10-09 03:25:01\n    Tagging application : inlet media FLVTool2 v1.0.6 -\n    Format : VP6\n    Codec ID : 4\n    Duration : 10mn 53s\n    Bit rate : 384 Kbps\n    Width : 528 pixels\n    Height : 400 pixels\n    Display aspect ratio : 4:3\n    Frame rate mode : Constant\n    Frame rate : 25.000 fps\n    Bit depth : 8 bits\n    Bits/(Pixel*Frame) : 0.073\n    Stream size : 30.1 MiB (85%)\n Audio\n    Format : MPEG Audio\n    Format version : Version 2\n    Format profile : Layer 3\n    Mode : Joint stereo\n    Mode extension : MS Stereo\n    Codec ID : 2\n    Codec ID/Hint : MP3\n    Duration : 10mn 52s\n    Bit rate mode : Constant\n    Bit rate : 64.0 Kbps\n    Channel(s) : 2 channels\n    Sampling rate : 22.05 KHz\n    Compression mode : Lossy\n    Stream size : 5.26 MiB (15%)\n    Writing library : LAME3.98.4","torrent":{"xt":"urn:btih:d11b6acf45b9dbf20b8bd4928a8e71a1ca2d5cdd","amp;dn":"isabail+kaif+mms+scandal","amp;tr":["udp%3A%2F%2Ftracker.openbittorrent.com%3A80","udp%3A%2F%2Fopen.demonii.com%3A1337","udp%3A%2F%2Ftracker.coppersurfer.tk%3A6969","udp%3A%2F%2Fexodus.desync.com%3A6969"],"infoHash":"d11b6acf45b9dbf20b8bd4928a8e71a1ca2d5cdd","infoHashBuffer":{"type":"Buffer","data":[209,27,106,207,69,185,219,242,11,139,212,146,138,142,113,161,202,45,92,221]},"announce":[],"urlList":[]}}